#N canvas 211 -13 1600 817 12;
#X declare -path ./sampler;
#X obj 748 130 soundfiler;
#N canvas 78 78 450 250 (subpatch) 0;
#X array Sample 7.62515e+06 float 2;
#X coords 0 1 7.62515e+06 -1 200 140 1 0 0;
#X restore 102 103 graph;
#X text 493 575 Hold Btn;
#X text 300 285 Mark;
#X text 284 320 rec re-sample;
#X text 97 323 del;
#X text 336 247 sample mode;
#X obj 411 287 BankS;
#X obj 63 404 central;
#X obj 325 353 tgl 19 0 empty empty empty 0 -10 0 12 #fcfcfc #000000 #000000 0 1;
#X obj 194 354 tgl 19 0 empty empty empty 0 -10 0 12 #fcfcfc #000000 #000000 0 1;
#X msg 748 81 read -resize ../samples/RSK/drums.wav Sample;
#X text 191 321 gate;
#X obj 63 855 outlet~;
#X obj 1358 74 declare -path ./sampler;
#X connect 7 0 8 3;
#X connect 8 0 13 0;
#X connect 9 0 8 2;
#X connect 10 0 8 1;
#X connect 11 0 0 0;
#X coords 0 -1 1 1 600 800 1 20 20;
