#N canvas 445 -8 1600 817 12;
#X obj 136 143 pad;
#X obj 250 143 pad;
#X obj 364 143 pad;
#X msg 997 664 54;
#X msg 957 665 53;
#X msg 920 666 52;
#X msg 794 666 49;
#X msg 884 665 51;
#X msg 1034 664 55;
#X msg 1109 666 57, f 5;
#X msg 1070 664 56;
#X msg 844 666 50;
#X obj 1087 413 loadbang;
#X obj 136 255 pad;
#X obj 250 255 pad;
#X obj 364 255 pad;
#X obj 136 367 pad;
#X obj 250 367 pad;
#X obj 364 367 pad;
#X obj 560 44 inlet;
#X obj 240 18 inlet;
#X obj 374 33 inlet;
#X obj 76 5 inlet~;
#X obj 269 665 outlet~;
#X obj 1235 460 bng 19 250 50 0 empty empty empty 0 -10 0 12 #fcfcfc #000000 #000000;
#X connect 0 0 23 0;
#X connect 1 0 23 0;
#X connect 2 0 23 0;
#X connect 3 0 15 1;
#X connect 4 0 14 1;
#X connect 5 0 13 1;
#X connect 6 0 16 1;
#X connect 7 0 18 1;
#X connect 8 0 0 1;
#X connect 9 0 2 1;
#X connect 10 0 1 1;
#X connect 11 0 17 1;
#X connect 12 0 6 0;
#X connect 12 0 11 0;
#X connect 12 0 7 0;
#X connect 12 0 5 0;
#X connect 12 0 4 0;
#X connect 12 0 3 0;
#X connect 12 0 8 0;
#X connect 12 0 10 0;
#X connect 12 0 9 0;
#X connect 13 0 23 0;
#X connect 14 0 23 0;
#X connect 15 0 23 0;
#X connect 16 0 23 0;
#X connect 17 0 23 0;
#X connect 18 0 23 0;
#X connect 19 0 2 4;
#X connect 19 0 1 4;
#X connect 19 0 16 4;
#X connect 19 0 0 4;
#X connect 19 0 15 4;
#X connect 19 0 14 4;
#X connect 19 0 13 4;
#X connect 19 0 17 4;
#X connect 19 0 18 4;
#X connect 20 0 2 2;
#X connect 20 0 1 2;
#X connect 20 0 16 2;
#X connect 20 0 0 2;
#X connect 20 0 13 2;
#X connect 20 0 14 2;
#X connect 20 0 15 2;
#X connect 20 0 17 2;
#X connect 20 0 18 2;
#X connect 21 0 2 3;
#X connect 21 0 1 3;
#X connect 21 0 16 3;
#X connect 21 0 0 3;
#X connect 21 0 13 3;
#X connect 21 0 14 3;
#X connect 21 0 15 3;
#X connect 21 0 18 3;
#X connect 21 0 17 3;
#X connect 22 0 2 0;
#X connect 22 0 1 0;
#X connect 22 0 16 0;
#X connect 22 0 0 0;
#X connect 22 0 13 0;
#X connect 22 0 14 0;
#X connect 22 0 15 0;
#X connect 22 0 17 0;
#X connect 22 0 18 0;
#X connect 24 0 6 0;
#X connect 24 0 11 0;
#X connect 24 0 7 0;
#X connect 24 0 5 0;
#X connect 24 0 4 0;
#X connect 24 0 3 0;
#X connect 24 0 8 0;
#X connect 24 0 10 0;
#X connect 24 0 9 0;
#X coords 0 -1 1 1 400 400 2 100 100;
