#N canvas 645 -11 1600 817 12;
#X obj 165 364 t b b;
#X msg 258 394 stop;
#X obj 165 276 key;
#X obj 226 273 keyup;
#X msg 165 389 1;
#X msg 226 372 0;
#X obj 213 466 change;
#X obj 417 606 bng 30 250 50 0 empty empty empty 17 7 0 10 #fcfcfc #000000 #000000;
#X obj 226 347 del 50;
#X obj 498 430 tgl 100 0 empty empty empty 17 7 0 10 #ffffff #ff0400 #ff0400 0 1;
#X obj 241 586 mux, f 7;
#X obj 303 507 bng 15 250 50 0 empty empty empty 17 7 0 10 #fcfcfc #000000 #000000;
#X obj 362 528 tgl 15 0 empty empty empty 17 7 0 10 #fcfcfc #000000 #000000 0 1;
#X obj 287 427 key;
#X obj 147 128 inlet;
#X obj 226 142 inlet;
#X obj 165 339 sel 50;
#X obj 226 322 sel 50;
#X obj 287 452 sel 50;
#N canvas 182 182 450 250 (subpatch) 0;
#X array \$0_padA 7.62515e+06 float 2;
#X coords 0 1 7.62515e+06 -1 200 140 1 0 0;
#X restore 711 114 graph;
#X obj 1276 403 spigot;
#X msg 1322 361 start;
#X obj 1276 313 sel 0 1;
#X msg 1276 362 stop;
#X obj 710 662 *~;
#X obj 1632 396 loadbang;
#X obj 570 549 s \$0_padBtn;
#X obj 1276 285 r \$0_padBtn;
#X text 1288 3 Bank;
#X text 788 47 A;
#X text 1281 19 Record;
#X obj 307 151 inlet;
#X obj 307 192 tgl 19 0 empty empty empty 0 -10 0 12 #fcfcfc #000000 #000000 0 1;
#X obj 307 216 s recording;
#X obj 1347 403 r recording;
#X msg 891 978 start;
#X obj 914 949 sel 0 1;
#X msg 959 978 stop;
#X obj 1263 804 r \$0_padBtn;
#X obj 891 1052 timer;
#X floatatom 895 1117 5 0 0 0 - - - 0;
#X obj 891 1015 bng 19 250 50 0 empty empty empty 0 -10 0 12 #fcfcfc #000000 #000000;
#X obj 927 1015 bng 19 250 50 0 empty empty empty 0 -10 0 12 #fcfcfc #000000 #000000;
#X obj 894 1170 tabplay~ \$0_padA;
#N canvas 182 182 450 250 (subpatch) 0;
#X array \$0_padB 7.62515e+06 float 2;
#X coords 0 1 7.62515e+06 -1 200 140 1 0 0;
#X restore 1051 114 graph;
#X msg 1236 986 start;
#X obj 1236 949 sel 0 1;
#X msg 1300 978 stop;
#X obj 1236 1060 timer;
#X floatatom 1236 1117 5 0 0 0 - - - 0;
#X obj 1236 1023 bng 19 250 50 0 empty empty empty 0 -10 0 12 #fcfcfc #000000 #000000;
#X obj 1268 1015 bng 19 250 50 0 empty empty empty 0 -10 0 12 #fcfcfc #000000 #000000;
#X obj 1235 1170 tabplay~ \$0_padB;
#X obj 1263 838 demux 0 1 2 3;
#X obj 709 759 tabwrite~ \$0_padA;
#N canvas 182 182 450 250 (subpatch) 0;
#X array \$0_padC 7.62515e+06 float 2;
#X coords 0 1 7.62515e+06 -1 200 140 1 0 0;
#X restore 1381 114 graph;
#N canvas 182 182 450 250 (subpatch) 0;
#X array \$0_padD 7.62515e+06 float 2;
#X coords 0 1 7.62515e+06 -1 200 140 1 0 0;
#X restore 1721 114 graph;
#X text 1128 47 B;
#X text 1458 47 C;
#X text 1798 47 D;
#X msg 1421 986 start;
#X obj 1421 949 sel 0 1;
#X msg 1481 978 stop;
#X obj 1421 1060 timer;
#X floatatom 1417 1117 5 0 0 0 - - - 0;
#X obj 1421 1023 bng 19 250 50 0 empty empty empty 0 -10 0 12 #fcfcfc #000000 #000000;
#X obj 1449 1015 bng 19 250 50 0 empty empty empty 0 -10 0 12 #fcfcfc #000000 #000000;
#X msg 1758 986 start;
#X obj 1758 949 sel 0 1;
#X msg 1822 978 stop;
#X obj 1758 1060 timer;
#X floatatom 1758 1117 5 0 0 0 - - - 0;
#X obj 1758 1023 bng 19 250 50 0 empty empty empty 0 -10 0 12 #fcfcfc #000000 #000000;
#X obj 1790 1015 bng 19 250 50 0 empty empty empty 0 -10 0 12 #fcfcfc #000000 #000000;
#X obj 1757 1170 tabplay~ \$0_padD;
#X obj 1416 1170 tabplay~ \$0_padC;
#X text 56 19 Inputs;
#X text 304 91 4;
#X text 59 50 1;
#X text 151 68 2;
#X text 231 82 3;
#X text 138 99 Set Key;
#X text 219 113 Gate;
#X text 304 122 Record;
#X text 39 81 Audio;
#X obj 1049 662 *~;
#X obj 1382 662 *~;
#X obj 1721 662 *~;
#X obj 1050 743 tabwrite~ \$0_padB;
#X obj 1383 743 tabwrite~ \$0_padC;
#X obj 1722 743 tabwrite~ \$0_padD;
#X text 405 106 5;
#X obj 405 166 inlet;
#X text 406 133 Bank;
#X obj 1363 1238 outlet~;
#X obj 405 198 s bank;
#X obj 1465 794 r bank;
#X obj 45 107 inlet~;
#X obj 1276 477 demux 0 1 2 3;
#X obj 1364 445 r bank;
#X msg 1632 438 0.5;
#X floatatom 1632 462 5 0 0 0 - - - 0;
#X obj 45 185 s~ audioP;
#X obj 709 586 r~ audioP;
#X obj 1050 586 r~ audioP;
#X obj 1383 586 r~ audioP;
#X obj 1722 586 r~ audioP;
#X obj 507 606 sel 0 1;
#X obj 496 658 bng 19 250 50 0 empty empty empty 0 -10 0 12 #fcfcfc #000000 #000000;
#X obj 102 522 -;
#X msg 136 471 48;
#X floatatom 102 584 5 0 0 0 - - - 0;
#X floatatom 136 495 5 0 0 0 - - - 0;
#X obj 500 250 cnv 100 100 100 empty \$0_padC 9 37 50 1 50 #fcfcfc #000000 0;
#X msg 449 859 \; \$1_padC color 0;
#X obj 459 788 f \$0;
#X obj 548 699 f \$0;
#X msg 530 791 \; \$1_padC color -1.67315e+07;
#X msg 108 674 label \$1;
#X obj 133 738 s \$0_padC;
#X obj 109 616 makefilename %d;
#X obj 136 440 loadbang;
#X connect 0 0 4 0;
#X connect 0 1 1 0;
#X connect 1 0 8 0;
#X connect 2 0 16 0;
#X connect 3 0 17 0;
#X connect 4 0 6 0;
#X connect 5 0 6 0;
#X connect 6 0 10 0;
#X connect 7 0 9 0;
#X connect 8 0 5 0;
#X connect 9 0 26 0;
#X connect 9 0 107 0;
#X connect 10 0 7 0;
#X connect 11 0 10 1;
#X connect 12 0 10 2;
#X connect 13 0 18 0;
#X connect 14 0 16 1;
#X connect 14 0 17 1;
#X connect 14 0 18 1;
#X connect 14 0 109 0;
#X connect 15 0 12 0;
#X connect 16 0 0 0;
#X connect 17 0 8 0;
#X connect 18 0 11 0;
#X connect 20 0 98 0;
#X connect 21 0 20 0;
#X connect 22 0 23 0;
#X connect 22 1 21 0;
#X connect 23 0 20 0;
#X connect 24 0 54 0;
#X connect 25 0 100 0;
#X connect 27 0 22 0;
#X connect 31 0 32 0;
#X connect 32 0 33 0;
#X connect 34 0 20 1;
#X connect 35 0 41 0;
#X connect 36 0 37 0;
#X connect 36 1 35 0;
#X connect 37 0 42 0;
#X connect 37 0 43 0;
#X connect 38 0 53 0;
#X connect 39 0 40 0;
#X connect 41 0 39 0;
#X connect 41 0 43 0;
#X connect 42 0 39 1;
#X connect 43 0 94 0;
#X connect 45 0 50 0;
#X connect 46 0 47 0;
#X connect 46 1 45 0;
#X connect 47 0 51 0;
#X connect 47 0 52 0;
#X connect 48 0 49 0;
#X connect 50 0 48 0;
#X connect 50 0 52 0;
#X connect 51 0 48 1;
#X connect 52 0 94 0;
#X connect 53 0 36 0;
#X connect 53 1 46 0;
#X connect 53 2 61 0;
#X connect 53 3 68 0;
#X connect 60 0 65 0;
#X connect 61 0 62 0;
#X connect 61 1 60 0;
#X connect 62 0 66 0;
#X connect 62 0 75 0;
#X connect 63 0 64 0;
#X connect 65 0 63 0;
#X connect 65 0 75 0;
#X connect 66 0 63 1;
#X connect 67 0 72 0;
#X connect 68 0 69 0;
#X connect 68 1 67 0;
#X connect 69 0 73 0;
#X connect 69 0 74 0;
#X connect 70 0 71 0;
#X connect 72 0 70 0;
#X connect 72 0 74 0;
#X connect 73 0 70 1;
#X connect 74 0 94 0;
#X connect 75 0 94 0;
#X connect 85 0 88 0;
#X connect 86 0 89 0;
#X connect 87 0 90 0;
#X connect 92 0 95 0;
#X connect 96 0 53 1;
#X connect 97 0 102 0;
#X connect 98 0 54 0;
#X connect 98 1 88 0;
#X connect 98 2 89 0;
#X connect 98 3 90 0;
#X connect 99 0 98 1;
#X connect 100 0 101 0;
#X connect 101 0 24 1;
#X connect 101 0 85 1;
#X connect 101 0 86 1;
#X connect 101 0 87 1;
#X connect 103 0 24 0;
#X connect 104 0 85 0;
#X connect 105 0 86 0;
#X connect 106 0 87 0;
#X connect 107 0 108 0;
#X connect 107 1 116 0;
#X connect 108 0 115 0;
#X connect 109 0 111 0;
#X connect 110 0 112 0;
#X connect 111 0 120 0;
#X connect 112 0 109 1;
#X connect 115 0 114 0;
#X connect 116 0 117 0;
#X connect 118 0 119 0;
#X connect 120 0 118 0;
#X connect 121 0 110 0;
#X coords 0 -1 1 1 100 100 1 500 250;
